<?xml version="1.0" standalone="no"?><!DOCTYPE svg PUBLIC "-//W3C//DTD SVG 1.1//EN" "http://www.w3.org/Graphics/SVG/1.1/DTD/svg11.dtd"><svg t="1772612736605" class="icon" viewBox="0 0 1860 1024" version="1.1" xmlns="http://www.w3.org/2000/svg" p-id="1640" xmlns:xlink="http://www.w3.org/1999/xlink" width="363.28125" height="200"><path d="M511.367342 304.044693c-15.093262 16.285966-33.71365 25.570667-38.382494 40.663928-6.950279 22.096527 15.094261 25.571666 32.572933 33.714649-5.808561 3.475139-10.373431 7.002266-17.426684 11.618122a173.706975 173.706975 0 0 0 12.810827 15.094262c-2.334422 0-3.475139-1.141717-5.808561-1.141717-6.951278 33.714649-11.619122 68.570016-19.762106 102.284665-1.141717 4.667844-12.811827 8.142983-19.762105 9.283701-55.810177 8.142983-110.426649 16.285966-166.236825 22.095527a22.510424 22.510424 0 0 0-22.096527 18.621388c-12.810827 41.857632-26.763371 83.714265-39.523211 125.571897a25.933577 25.933577 0 0 1-25.570667 20.747861c-24.429949 2.333422-50.000616 5.808561-74.378577 8.142983-36.049071 3.475139-37.189789 4.668844-40.664928 47.667194q631.286639-69.762721 1263.713996-139.525442c-9.2847-22.095527 6.950279-31.380228 20.747861-39.52321-38.382493-2.334422-76.712999-3.475139-115.095492-5.809561-17.427683-1.140717-30.23951 1.140717-30.23951 22.095527 0 3.475139-6.950279 11.619122-10.373431 11.619122a162.917648 162.917648 0 0 1-47.667193-1.141717c-17.427683-4.668844-17.427683-22.095527-13.952545-36.048072 4.668844-17.427683 1.141717-26.763371-17.427683-26.763371H998.512683a193.779004 193.779004 0 0 0-27.905088 6.949279c-10.373431-26.763371-22.095527-54.616472-32.572933-82.52156-2.334422-4.668844 3.475139-13.952544 6.950279-19.762106 5.808561-8.142983 12.810827-15.093262 18.620388-22.095527l-2.334422-4.668844c-39.523211 1.141717-50.000616-29.045806-63.95316-57.053868a179.567524 179.567524 0 0 1-13.952544-25.571666 50.207564 50.207564 0 0 0-54.616472-33.71365c-25.571666 1.140717-41.857632 0-53.476755 33.71365a465.774634 465.774634 0 0 1-30.23851 75.571282c-4.668844 9.2857-18.620388 12.811827-27.905088 19.763105a131.797356 131.797356 0 0 1-15.094262 118.570631c-8.142983-12.811827-16.285966-23.237244-22.094527-34.856366a27.801114 27.801114 0 0 0-36.049071-18.620388c-22.095527 5.808561-31.380228-3.475139-36.048072-24.429949-2.334422-12.810827-8.143983-25.570667-11.619122-38.382493-4.667844-12.810827-8.142983-24.429949-12.810827-38.382494 2.333422-1.140717 6.950279-3.475139 15.093262-8.142983a130.396703 130.396703 0 0 0-19.762105-9.2847c10.37443-11.617123 30.23951-22.094528 30.23951-33.71365 1.140717-11.619122-17.427683-24.429949-27.905089-39.52321h70.903439c0-20.747861-5.808561-32.573932-26.763371-31.380228-16.285966 1.139718-33.714649 0-50.000616 1.139718-12.811827 0-17.427683-5.808561-15.094261-18.619388 2.334422-11.619122-6.950279-25.571666 5.808561-36.049072 0 0 1.141717-2.333422 0-2.333422-29.044806-27.905088 3.476139-70.903438-22.094528-100.002231a19.606144 19.606144 0 0 1-2.334421-5.808561c23.237244-22.096527-4.668844-44.192054-1.140718-66.287581 2.333422-15.094261 2.333422-31.380228 3.475139-46.681438a25.570667 25.570667 0 0 1-9.2847-1.140718c-1.140717 13.952544-1.140717 26.763371-2.334422 40.663929s-2.333422 26.763371-4.667844 40.664928c0 3.475139-2.334422 9.2847-1.140717 11.618122 15.093262 24.429949-8.143983 46.681438-3.475139 69.762721 1.140717 5.808561 0 10.373431 1.140717 16.285966 0 4.668844 4.668844 10.37443 2.334422 12.811827-15.094261 23.237244-2.334422 47.667194-1.141717 70.904438 0 3.475139-9.283701 11.617123-13.952544 11.617122-17.427683 1.141717-34.855367-2.333422-52.335038-1.139718-5.808561 0-10.373431 9.283701-15.093261 13.951545 4.668844 4.668844 8.142983 12.811827 13.952544 12.811827 18.620388 2.334422 34.855367 2.334422 53.476754 3.475139z m570.808619-237.141264a27.542178 27.542178 0 0 0-24.429949 32.572932c1.140717 13.952544 0 27.905088 0 45.332772-20.746861-2.333422-38.382493-4.668844-55.810177-5.808561 0 2.333422-1.140717 4.667844-1.140717 6.950278a339.320955 339.320955 0 0 0 36.048071 16.285966c19.762105 5.808561 25.570667 17.427683 13.952544 34.855367a63.59025 63.59025 0 0 0-2.334422 13.952544c38.382493-6.950279 73.23786-13.952544 108.093227-19.762105a308.666548 308.666548 0 0 1 32.572932-3.475139 16.234979 16.234979 0 0 0 10.374431-3.475139c18.620388-24.428949 48.807911-25.570667 72.096143-38.381494 54.616472-29.046806 110.427649-10.37443 166.236825-8.143983a403.274115 403.274115 0 0 1 52.335037 6.950279c3.475139-12.810827 3.475139-13.952544-12.810826-17.427684l-83.715265-17.427683a133.766868 133.766868 0 0 1-19.762106-6.950279c16.285966-19.761105 30.23951-37.188789 48.807911-60.426033-33.71365 2.334422-59.285316-17.427683-88.17516 1.140718a392.79671 392.79671 0 0 1-59.285316 27.905088 66.806453 66.806453 0 0 1-22.096527 1.141717 19.762105 19.762105 0 0 0-1.139718-8.143983c5.808561-1.140717 11.617123-3.475139 16.285967-4.667844v-4.668843c-13.952544-2.333422-29.046806-4.666844-42.99935-6.949279-2.333422 0-6.950279-2.334422-8.142983-1.141717-13.952544 25.571666-34.855367 12.811827-53.476755 8.143983l-146.47372-38.382494a102.75055 102.75055 0 0 0-26.765371 0v6.950279c31.380228 15.093262 61.619738 29.045806 91.859248 42.99935 22.094528 8.141983 44.191055 15.092262 68.569016 23.236244-11.618122 13.952544-20.746861 24.429949-30.23851 33.71365-8.143983 8.143983-15.094261 6.950279-18.621388-4.667844-5.808561-17.375696-12.810827-34.80338-19.761105-52.335037zM1700.598786 935.331332a58.351547 58.351547 0 0 0-2.333422 13.952544v38.381494a35.996084 35.996084 0 0 1-34.855367 36.049071c-29.046806 0-57.055868 1.140717-84.856982-1.141717-134.856598-9.283701-270.854913-19.761105-405.711511-30.238511v-1.141717c-69.762721-5.808561-139.525442-11.618122-209.236175-16.285966Q508.464061 940.050163 53.320793 906.336514a31.121292 31.121292 0 0 1-31.380227-24.42995c-6.950279-24.429949-15.094261-47.666194-20.747861-72.096142a102.802537 102.802537 0 0 1 0-26.763371c11.619122-1.141717 19.762105-3.476139 29.046805-4.668844 337.142495-37.189789 674.284989-75.571282 1011.427484-110.427649 222.047002-23.236245 445.235722-41.857632 667.282724-60.426033a1069.053211 1069.053211 0 0 1 122.045771-1.140718c26.763371 0 36.048071 17.427683 23.237244 40.663929-48.807911 88.17616-97.667809 175.521526-145.231028 263.904634a67.428299 67.428299 0 0 0-8.402919 24.378962z m-2.333422 51.141333" fill="#1296db" p-id="1641"></path></svg>