<?xml version="1.0" standalone="no"?><!DOCTYPE svg PUBLIC "-//W3C//DTD SVG 1.1//EN" "http://www.w3.org/Graphics/SVG/1.1/DTD/svg11.dtd"><svg t="1772612583143" class="icon" viewBox="0 0 1024 1024" version="1.1" xmlns="http://www.w3.org/2000/svg" p-id="6801" xmlns:xlink="http://www.w3.org/1999/xlink" width="200" height="200"><path d="M848 176c-9.6-9.6-28.8-16-48-16s-54.4 6.4-89.6 38.4l-144 144c-38.4-3.2-105.6-6.4-166.4-9.6-64-6.4-118.4-9.6-121.6-9.6h-3.2c-12.8 0-25.6 3.2-35.2 12.8-16 12.8-51.2 44.8-51.2 44.8-9.6 9.6-12.8 19.2-12.8 32 0 6.4 3.2 19.2 19.2 25.6 9.6 3.2 137.6 51.2 201.6 76.8l-80 83.2H214.4c-6.4 0-16 0-44.8 22.4l-3.2 3.2c-3.2 3.2-6.4 12.8-6.4 19.2 0 6.4 0 16 9.6 22.4 6.4 3.2 67.2 41.6 115.2 73.6 9.6 12.8 32 51.2 51.2 80 9.6 16 19.2 28.8 19.2 32 6.4 6.4 12.8 12.8 22.4 12.8 9.6 0 19.2-3.2 25.6-12.8 22.4-25.6 22.4-38.4 19.2-44.8v-99.2l83.2-80c22.4 64 70.4 192 73.6 201.6 6.4 16 19.2 19.2 25.6 19.2 9.6 0 22.4-3.2 32-12.8 0 0 32-35.2 44.8-51.2 16-16 12.8-32 12.8-38.4 0-3.2-3.2-44.8-6.4-115.2-3.2-60.8-9.6-134.4-9.6-176l144-144c28.8-28.8 38.4-60.8 38.4-80 6.4-22.4 0-44.8-12.8-54.4z" fill="#cd00cd" p-id="6802"></path></svg>