<?xml version="1.0" standalone="no"?><!DOCTYPE svg PUBLIC "-//W3C//DTD SVG 1.1//EN" "http://www.w3.org/Graphics/SVG/1.1/DTD/svg11.dtd"><svg t="1772612809381" class="icon" viewBox="0 0 1763 1024" version="1.1" xmlns="http://www.w3.org/2000/svg" p-id="1730" xmlns:xlink="http://www.w3.org/1999/xlink" width="200" height="200"><path d="M1641.402631 853.149432a226.482736 226.482736 0 0 1-438.973821 0H1023.779319V56.876629h455.01303l284.383144 340.008487V853.149432h-121.772862zM1535.668978 316.347809L1347.52109 170.629886H1137.532576v227.506516h398.136402V316.347809zM1421.91572 682.519546a113.753258 113.753258 0 1 0 113.753258 113.753257 113.753258 113.753258 0 0 0-113.753258-113.753257zM341.259773 1023.779319a227.051502 227.051502 0 0 1-219.486911-170.629887H56.876629v-56.876629H0v-170.629886h56.876629V0h910.026061v853.149432H560.746683A227.051502 227.051502 0 0 1 341.259773 1023.779319z m0-341.259773a113.753258 113.753258 0 1 0 113.753258 113.753257 113.753258 113.753258 0 0 0-113.753258-113.753257z" fill="#38B781" p-id="1731"></path></svg>