<?xml version="1.0" standalone="no"?><!DOCTYPE svg PUBLIC "-//W3C//DTD SVG 1.1//EN" "http://www.w3.org/Graphics/SVG/1.1/DTD/svg11.dtd"><svg t="1772611943001" class="icon" viewBox="0 0 1024 1024" version="1.1" xmlns="http://www.w3.org/2000/svg" p-id="1997" xmlns:xlink="http://www.w3.org/1999/xlink" width="200" height="200"><path d="M808.32 126.8a29.69 29.69 0 1 0 21 8.68 29.66 29.66 0 0 0-21-8.68z m-83.19 61.47H462.4l136.06 136.02 129.48-129.47q-1.54-3.23-2.81-6.55z m44.79 48.49L640.41 366.25l136.12 136.12V239.59q-3.37-1.27-6.61-2.83z m-339.33 297.4a235.66 235.66 0 0 0 167.88 69.56 29.69 29.69 0 1 1 0 59.37 294.81 294.81 0 0 1-209.84-86.94 29.68 29.68 0 0 1 42-42z m-104-397.83c-118.37 139.78-111.65 350 20.12 481.79a353.52 353.52 0 0 0 166.08 94 28.68 28.68 0 0 1 6.82 1.56 350.33 350.33 0 0 0 78.9 8.73c85.17 0 165.76-29.67 230-84.17l-251-250.95c-0.3-0.3-0.59-0.6-0.88-0.91z m-23 522.56L148.24 900.48h331.51V764.67A412.9 412.9 0 0 1 304.7 660.08z m43.09-586.38l56.38 56.39h320.57a88.69 88.69 0 0 1 17.7-31.09l4-4.32a89.05 89.05 0 1 1 90.56 147.6v320.64l56.4 56.39a29.69 29.69 0 0 1 0 42 412.86 412.86 0 0 1-293.81 121.7 422.74 422.74 0 0 1-59.32-4.17v122.86h391a29.68 29.68 0 1 1 0 59.36H519.62a29.58 29.58 0 0 1-5.1-0.43 29 29 0 0 1-5.07 0.43H93.86a29.71 29.71 0 0 1-25-45.79l194.35-302.3C144.19 449.31 158 219.25 304.7 72.51a30.54 30.54 0 0 1 41.98 0z" fill="#464646" p-id="1998"></path></svg>