<?xml version="1.0" standalone="no"?><!DOCTYPE svg PUBLIC "-//W3C//DTD SVG 1.1//EN" "http://www.w3.org/Graphics/SVG/1.1/DTD/svg11.dtd"><svg t="1772612015891" class="icon" viewBox="0 0 1024 1024" version="1.1" xmlns="http://www.w3.org/2000/svg" p-id="1687" xmlns:xlink="http://www.w3.org/1999/xlink" width="200" height="200"><path d="M530.107733 703.146667a37.239467 37.239467 0 0 1-26.538666-10.973867l-197.973334-197.973333a37.546667 37.546667 0 0 1 0-53.0944l137.847467-137.864534a37.546667 37.546667 0 0 1 53.111467 0l197.973333 197.973334a37.666133 37.666133 0 0 1 0 53.111466l-137.864533 137.847467a37.239467 37.239467 0 0 1-26.555734 10.973867z m-60.074666-376.712534a3.413333 3.413333 0 0 0-2.4064 0.989867l-137.864534 137.847467a3.413333 3.413333 0 0 0 0 4.829866l197.973334 197.973334a3.413333 3.413333 0 0 0 4.829866 0l137.847467-137.864534a3.413333 3.413333 0 0 0 0-4.8128l-197.973333-197.973333a3.413333 3.413333 0 0 0-2.4064-1.041067zM276.872533 361.984a26.658133 26.658133 0 0 1-18.9952-7.850667l-30.173866-30.173866a26.88 26.88 0 0 1 0-37.973334L288.426667 225.28a26.862933 26.862933 0 0 1 37.9904 0l30.173866 30.1568a26.914133 26.914133 0 0 1 0 37.9904l-60.7232 60.706133a26.658133 26.658133 0 0 1-18.9952 7.850667z m-19.882666-57.002667l19.882666 19.882667 50.3808-50.397867-19.882666-19.882666z" p-id="1688"></path><path d="M478.481067 651.451733a37.2736 37.2736 0 0 1-26.555734-10.973866L271.138133 459.690667a85.896533 85.896533 0 0 1 0-121.361067l68.932267-68.949333a87.04 87.04 0 0 1 122.658133 0L642.884267 449.536a37.546667 37.546667 0 0 1 0 53.0944l-137.864534 137.847467a37.239467 37.239467 0 0 1-26.538666 10.973866zM401.408 278.186667a52.206933 52.206933 0 0 0-37.188267 15.36L295.253333 362.461867a51.746133 51.746133 0 0 0 0 73.096533l180.804267 180.7872a3.413333 3.413333 0 0 0 4.829867 0l137.864533-137.847467a3.413333 3.413333 0 0 0 0-4.829866L438.613333 293.546667a52.206933 52.206933 0 0 0-37.205333-15.36z" p-id="1689"></path><path d="M654.663085 569.990919m8.507909 8.507909l30.000938 30.000938q8.507909 8.507909 0 17.015817l-6.009842 6.009842q-8.507909 8.507909-17.015818 0l-30.000938-30.000938q-8.507909-8.507909 0-17.015817l6.009842-6.009842q8.507909-8.507909 17.015818 0Z" p-id="1690"></path><path d="M595.430048 629.247093m8.507909 8.507908l30.000938 30.000938q8.507909 8.507909 0 17.015818l-6.009842 6.009842q-8.507909 8.507909-17.015818 0l-30.000938-30.000938q-8.507909-8.507909 0-17.015818l6.009842-6.009842q8.507909-8.507909 17.015818 0Z" p-id="1691"></path><path d="M384.382293 548.783787L407.893333 572.291413l-41.70752 41.70752-23.507626-23.509333z" p-id="1692"></path><path d="M184.832 888.917333a36.5568 36.5568 0 0 1-25.890133-10.717866L78.506667 797.713067a36.676267 36.676267 0 0 1 0-51.780267l195.9424-195.9936a36.6592 36.6592 0 0 1 51.797333 0l80.4864 80.4864a36.676267 36.676267 0 0 1 0 51.780267L210.7392 878.199467a36.573867 36.573867 0 0 1-25.9072 10.717866zM300.373333 573.44a2.423467 2.423467 0 0 0-1.706666 0.699733L102.6048 770.065067a2.5088 2.5088 0 0 0 0 3.515733l80.469333 80.4864a2.474667 2.474667 0 0 0 1.706667 0.699733 2.423467 2.423467 0 0 0 1.706667-0.699733l196.096-195.9936a2.542933 2.542933 0 0 0 0-3.515733L302.08 574.071467a2.440533 2.440533 0 0 0-1.706667-0.631467z" p-id="1693"></path><path d="M213.41184 635.118933l22.71232-22.71232 108.12928 108.12928-22.71232 22.71232zM146.926933 701.610667l22.710614-22.710614 108.12928 108.12928-22.71232 22.710614zM592.90112 340.263253l23.507627 23.507627-41.705814 41.70752-23.509333-23.509333z" p-id="1694"></path><path d="M658.773333 415.044267a36.573867 36.573867 0 0 1-25.9072-10.717867l-80.469333-80.4864a36.642133 36.642133 0 0 1 0-51.780267l195.925333-195.9936a36.6592 36.6592 0 0 1 51.797334 0L880.64 156.552533a36.676267 36.676267 0 0 1 0 51.780267L684.612267 404.3264a36.5568 36.5568 0 0 1-25.838934 10.717867zM774.229333 99.498667a2.423467 2.423467 0 0 0-1.706666 0.699733L576.477867 296.192a2.5088 2.5088 0 0 0 0 3.515733l80.4864 80.4864a2.423467 2.423467 0 0 0 1.706666 0.699734 2.474667 2.474667 0 0 0 1.706667-0.699734l196.078933-195.9936a2.5088 2.5088 0 0 0 0-3.515733l-80.469333-80.4864a2.440533 2.440533 0 0 0-1.757867-0.699733z" p-id="1695"></path><path d="M745.659733 319.13984l-22.710613 22.71232-108.12928-108.12928 22.71232-22.71232zM812.151467 252.66176l-22.710614 22.710613-108.12928-108.127573 22.71232-22.71232zM655.9744 828.791467l-12.066133-12.0832A123.886933 123.886933 0 0 1 819.2 641.501867l11.946667 12.151466z m75.537067-189.44a89.719467 89.719467 0 0 0-74.3936 139.946666l124.586666-124.586666a89.634133 89.634133 0 0 0-50.193066-15.3088z" p-id="1696"></path><path d="M742.280533 744.669867m-24.576 0a24.576 24.576 0 1 0 49.152 0 24.576 24.576 0 1 0-49.152 0Z" p-id="1697"></path><path d="M890.504533 756.189867a17.595733 17.595733 0 0 0-35.1744 0 101.649067 101.649067 0 0 1-101.495466 101.512533 17.595733 17.595733 0 1 0 0 35.1744 136.925867 136.925867 0 0 0 136.721066-136.721067z" p-id="1698"></path><path d="M834.2528 743.936a15.837867 15.837867 0 0 0-14.0288-14.0288 10.717867 10.717867 0 0 0-11.946667 11.946667c1.604267 19.8656-4.744533 38.280533-17.646933 51.2S759.313067 812.373333 739.447467 810.666667a10.769067 10.769067 0 0 0-10.717867 5.5808 13.141333 13.141333 0 0 0 1.041067 12.987733 15.752533 15.752533 0 0 0 11.776 7.406933c26.743467 2.1504 51.541333-6.4 68.932266-23.790933s25.941333-42.171733 23.773867-68.932267zM868.096 870.5024c34.730667-34.696533 53.0944-81.5616 51.797333-131.9424a17.066667 17.066667 0 0 1 8.6528-15.4624 18.158933 18.158933 0 0 1 18.1248 0.4608 19.2512 19.2512 0 0 1 9.472 15.9232c1.570133 59.648-20.6336 116.258133-61.730133 157.354667s-97.6896 63.300267-157.3376 61.730133a19.3024 19.3024 0 0 1-18.568533-18.602667 17.066667 17.066667 0 0 1 17.646933-17.646933c50.363733 1.297067 97.28-17.066667 131.9424-51.8144z" p-id="1699"></path></svg>