<?xml version="1.0" standalone="no"?><!DOCTYPE svg PUBLIC "-//W3C//DTD SVG 1.1//EN" "http://www.w3.org/Graphics/SVG/1.1/DTD/svg11.dtd"><svg t="1772611828185" class="icon" viewBox="0 0 1024 1024" version="1.1" xmlns="http://www.w3.org/2000/svg" p-id="2308" xmlns:xlink="http://www.w3.org/1999/xlink" width="200" height="200"><path d="M774.656 381.952c0-144.896-117.76-262.656-262.656-262.656s-262.656 117.76-262.656 262.656c0 116.736 76.8 216.064 182.784 250.368 6.656 2.048 19.456 5.12 19.456 5.12-6.656-1.536-13.312-3.072-19.456-5.12l-70.656 265.728 25.6 6.656 124.928-91.648 126.464 91.648 25.088-6.656-70.656-265.728c104.96-33.792 181.76-133.12 181.76-250.368z m-262.656 122.88c6.144 0 12.8-0.512 18.432-1.536l9.728 36.352-29.696 22.016-27.136-19.968 10.24-38.4c6.144 0.512 12.288 1.536 18.432 1.536z m-11.776-27.648l11.264-41.472h1.024l11.264 41.472c-4.096 0.512-7.68 1.024-11.776 1.024-4.096 0-7.68-0.512-11.776-1.024z m47.104 89.088l1.536 5.632 5.632 20.992-22.016-15.872 14.848-10.752z m2.048-95.232l-11.264-42.496c16.384-9.216 27.648-26.624 27.648-46.592 0-29.696-24.064-53.248-53.248-53.248s-53.248 24.064-53.248 53.248c0 19.968 11.264 37.376 27.648 46.592L474.624 471.04c-34.816-14.336-58.88-48.64-58.88-88.576 0-53.248 43.008-96.256 96.256-96.256s96.256 43.008 96.256 96.256c0 39.424-24.576 73.728-58.88 88.576z m-74.24 100.864l1.024-3.584 12.288 8.704-18.432 13.312 5.12-18.432z m35.328 22.016l36.352 26.624-37.376 27.648-36.352-26.624 37.376-27.648z m45.568-97.792c46.08-17.92 78.336-61.952 78.336-114.176 0-67.584-54.784-122.368-122.368-122.368S389.632 314.88 389.632 381.952c0 52.224 32.768 96.256 78.336 114.176l-11.776 43.52c-65.024-23.04-111.616-84.992-111.616-157.696C344.576 289.792 419.84 215.04 512 215.04s167.424 75.264 167.424 167.424c0 72.704-46.592 134.656-111.616 157.696l-11.776-44.032z m-99.328 145.408l31.232 22.528-46.08 33.792 14.848-56.32z m-59.392 222.72l29.696-112.128 61.952 45.056-91.648 67.072z m113.664-83.968l-69.632-50.176 68.096-50.176 69.632 50.176-68.096 50.176z m85.504-30.208l30.208 114.176-93.696-67.584 63.488-46.592z m-13.312-49.152l-51.2-37.376 34.816-25.6v1.024l16.384 61.952z m2.56-93.696l-11.264-41.472c76.288-26.112 131.072-98.304 131.072-183.296 0-107.008-87.04-193.536-193.536-193.536s-193.536 87.04-193.536 193.536c0 84.992 54.784 157.184 131.072 183.296l-11.264 41.472c-94.72-31.232-163.328-119.808-163.328-224.768 0-130.56 105.984-236.544 236.544-236.544 130.56 0 236.544 105.984 236.544 236.544 0.512 104.448-68.096 193.536-162.304 224.768z" fill="#2c2c2c" p-id="2309"></path></svg>