<?xml version="1.0" standalone="no"?><!DOCTYPE svg PUBLIC "-//W3C//DTD SVG 1.1//EN" "http://www.w3.org/Graphics/SVG/1.1/DTD/svg11.dtd"><svg t="1772611804406" class="icon" viewBox="0 0 1024 1024" version="1.1" xmlns="http://www.w3.org/2000/svg" p-id="2242" id="mx_n_1772611804407" xmlns:xlink="http://www.w3.org/1999/xlink" width="200" height="200"><path d="M981.333333 291.626667a157.866667 157.866667 0 0 0-12.970666-62.634667 163.285333 163.285333 0 0 0-36.992-53.077333 171.178667 171.178667 0 0 0-55.338667-35.456A176.768 176.768 0 0 0 810.752 128a13.653333 13.653333 0 0 0-9.386667 3.754667 12.544 12.544 0 0 0 0 18.090666 13.653333 13.653333 0 0 0 9.386667 3.754667c38.186667 0 74.752 14.506667 101.717333 40.405333a135.253333 135.253333 0 0 1 42.154667 97.621334c0 3.413333 1.408 6.613333 3.882667 9.045333a13.653333 13.653333 0 0 0 18.901333 0A12.586667 12.586667 0 0 0 981.333333 291.626667zM314.752 427.008l-155.392 144.170667-90.453333 54.101333c-14.592 10.837333-26.24 27.093333-26.24 46.08v173.226667h61.269333c-2.901333-8.106667-2.901333-18.986667-2.901333-27.136 0-86.613333 90.453333-156.928 189.610666-129.92 23.338667 5.418667 43.776 16.213333 58.368 29.824a135.509333 135.509333 0 0 1 40.874667 127.232h239.232c-2.901333-8.106667-2.901333-21.674667-2.901333-29.824-0.128-21.333333 5.12-42.410667 15.36-61.44 10.410667-19.2 25.429333-35.712 43.818666-48.256a152.021333 152.021333 0 0 1 62.634667-24.618667 156.714667 156.714667 0 0 1 67.84 4.437333c23.296 8.106667 43.733333 18.901333 58.325333 32.426667a135.424 135.424 0 0 1 40.832 127.274667l2.944-2.730667c32.085333 0 58.368-24.32 58.368-54.144v-327.509333c0-24.405333-20.48-51.2-49.578666-51.2h-87.722667c5.162667-4.096 5.12-11.690667 0.426667-16.256l-147.925334-141.952c-8.277333-7.936-21.504-8.021333-28.245333 1.194666a112.128 112.128 0 0 0-8.96 119.381334c7.68 14.506667 18.389333 27.306667 31.530667 37.632H361.728a68.224 68.224 0 0 0-46.933333 17.962666z m544.853333 122.837333a21.333333 21.333333 0 0 1-21.333333 21.333334h-74.026667a21.333333 21.333333 0 0 1-21.333333-21.333334v-65.706666a21.333333 21.333333 0 0 1 21.333333-21.333334h74.026667a21.333333 21.333333 0 0 1 21.333333 21.333334v65.706666z m-175.061333 0a21.333333 21.333333 0 0 1-21.333333 21.333334H589.226667a21.333333 21.333333 0 0 1-21.333334-21.333334v-65.706666a21.333333 21.333333 0 0 1 21.333334-21.333334h74.026666a21.333333 21.333333 0 0 1 21.333334 21.333334v65.706666z m-254.72-86.997333a21.333333 21.333333 0 0 1 21.333333 21.333333v65.664a21.333333 21.333333 0 0 1-21.333333 21.333334h-99.413333a21.333333 21.333333 0 0 1-14.506667-36.992l70.741333-65.664a21.333333 21.333333 0 0 1 14.506667-5.674667h28.672z m376.021333 276.522667a91.946667 91.946667 0 0 0-33.749333-5.802667c-49.578667 0-87.552 37.888-87.552 81.194667-0.170667 10.752 1.92 21.376 6.229333 31.36 4.352 9.898667 10.794667 18.944 18.944 26.538666 8.192 7.552 17.92 13.525333 28.586667 17.578667 10.752 3.968 22.229333 5.973333 33.792 5.76 49.578667 0 87.509333-35.2 87.509333-81.237333a74.666667 74.666667 0 0 0-6.229333-31.274667 79.573333 79.573333 0 0 0-18.944-26.538667 86.613333 86.613333 0 0 0-28.586667-17.578666z m-525.226666 0a91.946667 91.946667 0 0 0-33.706667-5.802667c-49.578667 0-87.552 37.888-87.552 81.194667-0.170667 10.709333 1.92 21.333333 6.229333 31.317333 4.352 9.898667 10.794667 18.944 18.944 26.538667 8.192 7.552 17.92 13.525333 28.586667 17.578666 10.752 4.010667 22.229333 5.973333 33.792 5.76 49.578667 0 87.509333-35.157333 87.509333-81.194666a74.666667 74.666667 0 0 0-6.229333-31.274667 79.573333 79.573333 0 0 0-18.944-26.581333 86.698667 86.698667 0 0 0-28.586667-17.578667v0.042667zM807.893333 195.413333a105.386667 105.386667 0 0 1 72.96 29.013334c19.370667 18.56 30.250667 43.733333 30.250667 69.973333 0 3.413333-1.450667 6.656-3.925333 9.045333a13.653333 13.653333 0 0 1-18.858667 0 12.544 12.544 0 0 1-3.925333-9.045333c0-19.456-8.064-38.144-22.4-51.882667a78.165333 78.165333 0 0 0-54.101334-21.504 13.824 13.824 0 0 1-9.386666-3.754666 12.8 12.8 0 0 1-3.925334-9.045334 12.373333 12.373333 0 0 1 3.882667-9.045333 13.397333 13.397333 0 0 1 9.429333-3.754667z m29.866667 97.28a19.882667 19.882667 0 0 1-14.037333 5.546667 20.565333 20.565333 0 0 1-14.037334-5.546667 18.986667 18.986667 0 0 1-5.802666-13.44 18.346667 18.346667 0 0 1 5.76-13.44 20.266667 20.266667 0 0 1 28.074666 0 18.645333 18.645333 0 0 1 0 26.88z" p-id="2243"></path></svg>