<?xml version="1.0" standalone="no"?><!DOCTYPE svg PUBLIC "-//W3C//DTD SVG 1.1//EN" "http://www.w3.org/Graphics/SVG/1.1/DTD/svg11.dtd"><svg t="1772612080061" class="icon" viewBox="0 0 1024 1024" version="1.1" xmlns="http://www.w3.org/2000/svg" p-id="1588" xmlns:xlink="http://www.w3.org/1999/xlink" width="200" height="200"><path d="M1003.960727 888.202178a70.995222 70.995222 0 0 1-44.20542 34.352043l-357.806334 93.487275a70.935323 70.935323 0 0 1-60.812401-12.099586L367.474563 872.343933a70.965272 70.965272 0 0 0-60.093615-12.294258L88.375439 914.827258c-53.489756 13.372439-101.169314-36.703077-85.176296-89.489021l97.14111-320.878635a71.010196 71.010196 0 0 1 67.955351-50.43491h85.954982c51.138722 82.795313 122.777858 150.975285 174.395772 199.927696l9.838401 9.35921a98.324114 98.324114 0 0 0 67.9853 27.209094 98.039594 98.039594 0 0 0 67.775653-27.074322l8.475701-8.041433c48.952411-46.361782 122.448413-116.263848 175.069634-201.380245h80.339457a71.010196 71.010196 0 0 1 67.730729 49.656224l103.670095 328.80027a71.040146 71.040146 0 0 1-5.570601 55.720992z m-476.196594-273.738168c-11.979789 11.395774-30.713183 11.335875-42.707946-0.089848-78.886907-75.098299-226.447953-208.583093-226.447953-360.846205 0-136.914008 110.962791-247.906749 247.84685-247.906749 136.869084 0 247.831875 110.992741 247.831875 247.936698 0 151.738996-149.477811 287.709596-226.522826 360.906104z m60.318235-407.821951a93.053007 93.053007 0 0 0-173.437388 46.900872 93.067982 93.067982 0 1 0 173.437388-46.900872z" p-id="1589"></path></svg>